<?xml version="1.0" standalone="no"?>
<!DOCTYPE svg PUBLIC "-//W3C//DTD SVG 20010904//EN"
 "http://www.w3.org/TR/2001/REC-SVG-20010904/DTD/svg10.dtd">
<svg version="1.0" xmlns="http://www.w3.org/2000/svg"
 width="300.000000pt" height="225.000000pt" viewBox="0 0 300.000000 225.000000"
 preserveAspectRatio="xMidYMid meet">
<metadata>
Created by potrace 1.10, written by Peter Selinger 2001-2011
</metadata>
<g transform="translate(0.000000,225.000000) scale(0.100000,-0.100000)"
fill="#000000" stroke="none">
<path d="M1095 1124 l0 -464 73 0 72 0 0 78 0 77 76 -77 76 -78 95 0 95 0
-137 133 -138 134 71 54 c39 30 70 57 69 60 -1 4 -27 27 -57 52 l-55 44 -47
-39 -48 -40 0 207 c0 203 0 207 -22 225 -13 10 -45 36 -73 58 l-50 40 0 -464z
m82 360 l33 -25 0 -188 c0 -178 1 -189 21 -207 20 -18 21 -18 61 4 39 21 42
21 69 5 16 -10 29 -23 29 -29 0 -6 -17 -27 -37 -46 -66 -60 -68 -63 -44 -100
11 -18 56 -69 100 -112 44 -43 78 -83 75 -87 -3 -5 -22 -9 -42 -9 -32 0 -45 8
-87 51 -28 28 -63 57 -79 66 -26 13 -30 13 -44 -1 -9 -9 -19 -37 -22 -63 -5
-44 -7 -48 -34 -51 -16 -2 -33 1 -38 6 -5 5 -9 146 -9 333 0 467 0 479 8 479
3 0 21 -11 40 -26z"/>
<path d="M1705 1430 c-110 -88 -202 -160 -205 -160 -3 0 -47 34 -98 75 -51 41
-94 75 -97 75 -3 0 -5 -42 -5 -93 l0 -92 95 -75 c52 -41 98 -76 103 -77 4 -1
63 42 132 97 l125 99 3 -309 2 -310 75 0 75 0 0 465 c0 256 -1 465 -2 465 -2
-1 -93 -72 -203 -160z m163 -327 l-3 -398 -35 0 -35 0 -5 281 c-6 351 -7 352
-121 268 -34 -26 -72 -55 -83 -66 -12 -11 -36 -28 -54 -40 -40 -24 -44 -22
-164 82 -25 22 -29 31 -26 68 l3 44 69 -51 c38 -28 76 -51 85 -51 21 0 43 15
161 109 129 104 193 151 202 151 5 0 7 -179 6 -397z"/>
</g>
</svg>
